<svg width="40" height="40" viewBox="0 0 40 40" fill="none" xmlns="http://www.w3.org/2000/svg">
<rect x="0.5" y="0.5" width="39" height="39" rx="19.5" stroke="#543C52" style="stroke:#543C52;stroke:color(display-p3 0.3294 0.2353 0.3216);stroke-opacity:1;"/>
<path d="M11.667 15.0001C11.667 14.116 12.0182 13.2682 12.6433 12.6431C13.2684 12.0179 14.1163 11.6667 15.0003 11.6667H25.0003C25.8844 11.6667 26.7322 12.0179 27.3573 12.6431C27.9825 13.2682 28.3337 14.116 28.3337 15.0001V25.0001C28.3337 25.8841 27.9825 26.732 27.3573 27.3571C26.7322 27.9822 25.8844 28.3334 25.0003 28.3334H15.0003C14.1163 28.3334 13.2684 27.9822 12.6433 27.3571C12.0182 26.732 11.667 25.8841 11.667 25.0001V15.0001Z" stroke="#543C52" style="stroke:#543C52;stroke:color(display-p3 0.3294 0.2353 0.3216);stroke-opacity:1;" stroke-width="1.66667" stroke-linecap="round" stroke-linejoin="round"/>
<path d="M17.0833 19.1667C18.2339 19.1667 19.1667 18.2339 19.1667 17.0833C19.1667 15.9327 18.2339 15 17.0833 15C15.9327 15 15 15.9327 15 17.0833C15 18.2339 15.9327 19.1667 17.0833 19.1667Z" stroke="#543C52" style="stroke:#543C52;stroke:color(display-p3 0.3294 0.2353 0.3216);stroke-opacity:1;" stroke-width="1.66667" stroke-linecap="round" stroke-linejoin="round"/>
<path d="M22.105 20.5176L15 28.3334H25.1108C25.9655 28.3334 26.7851 27.9939 27.3895 27.3896C27.9938 26.7852 28.3333 25.9656 28.3333 25.1109V25.0001C28.3333 24.6118 28.1875 24.4626 27.925 24.1751L24.5667 20.5126C24.4101 20.3418 24.2198 20.2056 24.0076 20.1126C23.7955 20.0195 23.5664 19.9717 23.3347 19.9722C23.1031 19.9726 22.8741 20.0214 22.6624 20.1153C22.4507 20.2092 22.2608 20.3462 22.105 20.5176Z" stroke="#543C52" style="stroke:#543C52;stroke:color(display-p3 0.3294 0.2353 0.3216);stroke-opacity:1;" stroke-width="1.66667" stroke-linecap="round" stroke-linejoin="round"/>
</svg>
