<svg width="40" height="40" viewBox="0 0 40 40" fill="none" xmlns="http://www.w3.org/2000/svg">
<rect x="0.5" y="0.5" width="39" height="39" rx="19.5" stroke="#543C52" style="stroke:#543C52;stroke:color(display-p3 0.3294 0.2353 0.3216);stroke-opacity:1;"/>
<path d="M20 11.3301C22.2986 11.3326 24.5026 12.2467 26.1279 13.8721C27.7533 15.4974 28.6674 17.7014 28.6699 20C28.6699 21.7146 28.1615 23.3907 27.209 24.8164C26.2563 26.2422 24.9016 27.3536 23.3174 28.0098C21.7332 28.6659 19.9903 28.8374 18.3086 28.5029C16.6268 28.1684 15.0816 27.3434 13.8691 26.1309C12.6566 24.9184 11.8316 23.3732 11.4971 21.6914C11.1626 20.0097 11.3341 18.2668 11.9902 16.6826C12.6464 15.0984 13.7578 13.7437 15.1836 12.791C16.5201 11.8981 18.0767 11.3953 19.6787 11.3359L20 11.3301ZM22.6123 13.6934C21.3649 13.1767 19.9922 13.0413 18.668 13.3047C17.3438 13.5681 16.1275 14.2182 15.1729 15.1729C14.2182 16.1275 13.5681 17.3438 13.3047 18.668C13.0413 19.9922 13.1767 21.3649 13.6934 22.6123C14.21 23.8596 15.0846 24.9257 16.207 25.6758C17.3297 26.4259 18.6498 26.8262 20 26.8262C21.8099 26.8242 23.5454 26.105 24.8252 24.8252C26.105 23.5454 26.8242 21.8099 26.8262 20C26.8262 18.6498 26.4259 17.3297 25.6758 16.207C24.9257 15.0846 23.8596 14.21 22.6123 13.6934ZM23.3535 21.0078C23.475 21.0233 23.5922 21.0628 23.6982 21.124C23.8042 21.1852 23.8967 21.2669 23.9707 21.3643C24.0448 21.4617 24.0993 21.5728 24.1299 21.6914C24.1605 21.81 24.1671 21.9335 24.1494 22.0547C24.1318 22.1758 24.0905 22.2926 24.0273 22.3975H24.0264C23.1464 23.9221 21.6772 24.7959 20 24.7959C18.4275 24.7959 17.0398 24.0289 16.1455 22.6758L15.9736 22.3975C15.8572 22.1864 15.8281 21.9383 15.8926 21.7061C15.9572 21.4734 16.1103 21.2751 16.3193 21.1543C16.5285 21.0335 16.7769 20.9992 17.0107 21.0596C17.2441 21.1198 17.4447 21.2693 17.5693 21.4756V21.4766C17.8867 22.0256 18.6275 22.9521 20 22.9521C21.3726 22.9521 22.1133 22.0248 22.4307 21.4766V21.4756C22.4899 21.3685 22.57 21.2741 22.666 21.1982C22.762 21.1225 22.8725 21.067 22.9902 21.0342C23.1082 21.0014 23.232 20.9924 23.3535 21.0078ZM17.3369 17.165C17.5783 17.2131 17.8006 17.3318 17.9746 17.5059C18.1485 17.6798 18.2674 17.9014 18.3154 18.1426C18.3634 18.384 18.3383 18.6349 18.2441 18.8623C18.1499 19.0896 17.9907 19.2842 17.7861 19.4209C17.5816 19.5576 17.3408 19.6298 17.0947 19.6299C16.7647 19.6299 16.4482 19.4989 16.2148 19.2656C15.9815 19.0322 15.8496 18.7158 15.8496 18.3857C15.8496 18.1396 15.9228 17.899 16.0596 17.6943C16.1963 17.4897 16.3908 17.3305 16.6182 17.2363C16.8455 17.1422 17.0956 17.1171 17.3369 17.165ZM22.9053 17.1416C23.2353 17.1416 23.5518 17.2726 23.7852 17.5059C24.0185 17.7392 24.1504 18.0557 24.1504 18.3857C24.1504 18.6319 24.0772 18.8725 23.9404 19.0771C23.8037 19.2818 23.6092 19.441 23.3818 19.5352C23.1545 19.6293 22.9044 19.6544 22.6631 19.6064C22.4217 19.5584 22.1994 19.4397 22.0254 19.2656C21.8515 19.0917 21.7326 18.8701 21.6846 18.6289C21.6366 18.3875 21.6617 18.1366 21.7559 17.9092C21.8501 17.6819 22.0093 17.4873 22.2139 17.3506C22.4184 17.2139 22.6592 17.1417 22.9053 17.1416Z" fill="#543C52" stroke="#543C52" style="fill:#543C52;fill:color(display-p3 0.3294 0.2353 0.3216);fill-opacity:1;stroke:#543C52;stroke:color(display-p3 0.3294 0.2353 0.3216);stroke-opacity:1;" stroke-width="0.09375"/>
</svg>
