<svg width="24" height="28" viewBox="0 0 24 28" fill="none" xmlns="http://www.w3.org/2000/svg">
<rect x="1" y="3" width="22" height="22" rx="11" fill="white" style="fill:white;fill-opacity:1;"/>
<rect x="1" y="3" width="22" height="22" rx="11" stroke="#543C52" style="stroke:#543C52;stroke:color(display-p3 0.3294 0.2353 0.3216);stroke-opacity:1;" stroke-width="2"/>
<path d="M16.8681 14.8102H12.8117V18.8667C12.8117 19.0819 12.7262 19.2882 12.574 19.4404C12.4219 19.5925 12.2155 19.678 12.0004 19.678C11.7852 19.678 11.5788 19.5925 11.4267 19.4404C11.2745 19.2882 11.1891 19.0819 11.1891 18.8667V14.8102H7.13259C6.91742 14.8102 6.71106 14.7247 6.55891 14.5726C6.40676 14.4204 6.32129 14.2141 6.32129 13.9989C6.32129 13.7837 6.40676 13.5774 6.55891 13.4252C6.71106 13.2731 6.91742 13.1876 7.13259 13.1876H11.1891V9.13112C11.1891 8.91595 11.2745 8.70959 11.4267 8.55745C11.5788 8.4053 11.7852 8.31982 12.0004 8.31982C12.2155 8.31982 12.4219 8.4053 12.574 8.55745C12.7262 8.70959 12.8117 8.91595 12.8117 9.13112V13.1876H16.8681C17.0833 13.1876 17.2897 13.2731 17.4418 13.4252C17.594 13.5774 17.6794 13.7837 17.6794 13.9989C17.6794 14.2141 17.594 14.4204 17.4418 14.5726C17.2897 14.7247 17.0833 14.8102 16.8681 14.8102Z" fill="#543C52" style="fill:#543C52;fill:color(display-p3 0.3294 0.2353 0.3216);fill-opacity:1;"/>
</svg>
