<svg width="40" height="40" viewBox="0 0 40 40" fill="none" xmlns="http://www.w3.org/2000/svg">
<rect x="0.5" y="0.5" width="39" height="39" rx="19.5" fill="white" style="fill:white;fill-opacity:1;"/>
<rect x="0.5" y="0.5" width="39" height="39" rx="19.5" stroke="#543C52" style="stroke:#543C52;stroke:color(display-p3 0.3294 0.2353 0.3216);stroke-opacity:1;"/>
<path d="M13.333 15.8333H26.6663M18.333 19.1667V24.1667M21.6663 19.1667V24.1667M14.1663 15.8333L14.9997 25.8333C14.9997 26.2754 15.1753 26.6993 15.4878 27.0118C15.8004 27.3244 16.2243 27.5 16.6663 27.5H23.333C23.775 27.5 24.199 27.3244 24.5115 27.0118C24.8241 26.6993 24.9997 26.2754 24.9997 25.8333L25.833 15.8333M17.4997 15.8333V13.3333C17.4997 13.1123 17.5875 12.9004 17.7438 12.7441C17.9 12.5878 18.112 12.5 18.333 12.5H21.6663C21.8874 12.5 22.0993 12.5878 22.2556 12.7441C22.4119 12.9004 22.4997 13.1123 22.4997 13.3333V15.8333" stroke="#543C52" style="stroke:#543C52;stroke:color(display-p3 0.3294 0.2353 0.3216);stroke-opacity:1;" stroke-width="1.66667" stroke-linecap="round" stroke-linejoin="round"/>
</svg>
