<svg width="40" height="40" viewBox="0 0 40 40" fill="none" xmlns="http://www.w3.org/2000/svg">
<rect x="0.5" y="0.5" width="39" height="39" rx="19.5" fill="#543C52" style="fill:#543C52;fill:color(display-p3 0.3294 0.2353 0.3216);fill-opacity:1;"/>
<rect x="0.5" y="0.5" width="39" height="39" rx="19.5" stroke="#543C52" style="stroke:#543C52;stroke:color(display-p3 0.3294 0.2353 0.3216);stroke-opacity:1;"/>
<path d="M27.3296 18.63L14.2 11.1378C13.9231 10.9827 13.6056 10.9156 13.2897 10.9454C12.9738 10.9751 12.6745 11.1004 12.4315 11.3044C12.1885 11.5085 12.0134 11.7817 11.9295 12.0877C11.8456 12.3937 11.8568 12.718 11.9617 13.0175L14.3195 19.9987L11.9617 26.98C11.8788 27.2155 11.8535 27.4674 11.888 27.7147C11.9226 27.962 12.0158 28.1974 12.1601 28.4012C12.3043 28.6051 12.4952 28.7713 12.7169 28.8862C12.9387 29.001 13.1846 29.061 13.4343 29.0612C13.7028 29.0607 13.9667 28.9913 14.2007 28.8597L14.2078 28.855L27.3328 21.3495C27.5734 21.2133 27.7736 21.0156 27.9129 20.7767C28.0522 20.5378 28.1256 20.2663 28.1256 19.9897C28.1256 19.7132 28.0522 19.4416 27.9129 19.2027C27.7736 18.9638 27.5734 18.7662 27.3328 18.63H27.3296ZM13.996 26.8159L15.982 20.9362H20.3093C20.558 20.9362 20.7964 20.8374 20.9722 20.6616C21.1481 20.4858 21.2468 20.2474 21.2468 19.9987C21.2468 19.7501 21.1481 19.5116 20.9722 19.3358C20.7964 19.16 20.558 19.0612 20.3093 19.0612H15.982L13.9953 13.18L25.9296 19.9901L13.996 26.8159Z" fill="white" style="fill:white;fill-opacity:1;"/>
</svg>
