<svg width="40" height="40" viewBox="0 0 40 40" fill="none" xmlns="http://www.w3.org/2000/svg">
<rect x="0.5" y="0.5" width="39" height="39" rx="19.5" stroke="#543C52" style="stroke:#543C52;stroke:color(display-p3 0.3294 0.2353 0.3216);stroke-opacity:1;"/>
<path d="M11.666 14.9998C11.666 14.1158 12.0172 13.2679 12.6423 12.6428C13.2674 12.0177 14.1153 11.6665 14.9993 11.6665H24.9993C25.8834 11.6665 26.7312 12.0177 27.3564 12.6428C27.9815 13.2679 28.3327 14.1158 28.3327 14.9998V24.9998C28.3327 25.8839 27.9815 26.7317 27.3564 27.3569C26.7312 27.982 25.8834 28.3332 24.9993 28.3332H14.9993C14.1153 28.3332 13.2674 27.982 12.6423 27.3569C12.0172 26.7317 11.666 25.8839 11.666 24.9998V14.9998Z" stroke="#543C52" style="stroke:#543C52;stroke:color(display-p3 0.3294 0.2353 0.3216);stroke-opacity:1;" stroke-width="1.66667" stroke-linecap="round" stroke-linejoin="round"/>
<path d="M17.0833 19.1667C18.2339 19.1667 19.1667 18.2339 19.1667 17.0833C19.1667 15.9327 18.2339 15 17.0833 15C15.9327 15 15 15.9327 15 17.0833C15 18.2339 15.9327 19.1667 17.0833 19.1667Z" stroke="#543C52" style="stroke:#543C52;stroke:color(display-p3 0.3294 0.2353 0.3216);stroke-opacity:1;" stroke-width="1.66667" stroke-linecap="round" stroke-linejoin="round"/>
<path d="M22.105 20.5171L15 28.3329H25.1108C25.9655 28.3329 26.7851 27.9934 27.3895 27.3891C27.9938 26.7847 28.3333 25.9651 28.3333 25.1104V24.9996C28.3333 24.6113 28.1875 24.4621 27.925 24.1746L24.5667 20.5121C24.4101 20.3414 24.2198 20.2051 24.0076 20.1121C23.7955 20.019 23.5664 19.9712 23.3347 19.9717C23.1031 19.9722 22.8741 20.0209 22.6624 20.1148C22.4507 20.2087 22.2608 20.3457 22.105 20.5171Z" stroke="#543C52" style="stroke:#543C52;stroke:color(display-p3 0.3294 0.2353 0.3216);stroke-opacity:1;" stroke-width="1.66667" stroke-linecap="round" stroke-linejoin="round"/>
</svg>
