<svg width="20" height="20" viewBox="0 0 20 20" fill="none" xmlns="http://www.w3.org/2000/svg">
<path d="M3.125 2.22754H8.125C8.36303 2.22754 8.59145 2.32192 8.75977 2.49023C8.92808 2.65855 9.02246 2.88697 9.02246 3.125C9.02246 3.36303 8.92808 3.59145 8.75977 3.75977C8.59145 3.92808 8.36303 4.02246 8.125 4.02246H4.02246V15.9775H8.125C8.36303 15.9775 8.59145 16.0719 8.75977 16.2402C8.92808 16.4085 9.02246 16.637 9.02246 16.875C9.02246 17.113 8.92808 17.3415 8.75977 17.5098C8.59145 17.6781 8.36303 17.7725 8.125 17.7725H3.125C2.88697 17.7725 2.65855 17.6781 2.49023 17.5098C2.32192 17.3415 2.22754 17.113 2.22754 16.875V3.125C2.22754 2.88697 2.32192 2.65855 2.49023 2.49023C2.65855 2.32192 2.88697 2.22754 3.125 2.22754ZM13.749 5.97656C13.9875 5.97656 14.2161 6.07162 14.3848 6.24023L17.5098 9.36523C17.5933 9.44855 17.6598 9.5473 17.7051 9.65625C17.7503 9.76537 17.7735 9.88285 17.7734 10.001C17.7734 10.1189 17.7503 10.2358 17.7051 10.3447C17.6597 10.4537 17.5934 10.5534 17.5098 10.6367H17.5088L14.3838 13.7617C14.2152 13.9302 13.9864 14.0254 13.748 14.0254C13.5097 14.0253 13.2808 13.9302 13.1123 13.7617C12.9438 13.5932 12.8497 13.3643 12.8496 13.126C12.8496 12.8877 12.9439 12.6588 13.1123 12.4902L14.6377 10.9658L14.7061 10.8975H8.125C7.88697 10.8975 7.65855 10.8031 7.49023 10.6348C7.32192 10.4665 7.22754 10.238 7.22754 10C7.22754 9.76197 7.32192 9.53355 7.49023 9.36523C7.65855 9.19692 7.88697 9.10254 8.125 9.10254H14.7061L14.6377 9.03418L13.1133 7.51172C12.9447 7.34315 12.8497 7.11437 12.8496 6.87598C12.8496 6.63761 12.9448 6.40883 13.1133 6.24023C13.2819 6.07166 13.5106 5.97661 13.749 5.97656Z" fill="#070A1C" stroke="#070A1C" style="fill:#070A1C;fill:color(display-p3 0.0275 0.0392 0.1098);fill-opacity:1;stroke:#070A1C;stroke:color(display-p3 0.0275 0.0392 0.1098);stroke-opacity:1;" stroke-width="0.08"/>
</svg>
