<svg width="46" height="46" viewBox="0 0 46 46" fill="none" xmlns="http://www.w3.org/2000/svg">
<circle cx="23" cy="23" r="23" fill="#543C52" style="fill:#543C52;fill:color(display-p3 0.3294 0.2353 0.3216);fill-opacity:1;"/>
<path d="M12.3503 29.1782V17.9782H14.2863L18.7183 26.1062V17.9782H20.4783V29.1782H18.5423L14.1103 21.0502V29.1782H12.3503ZM34.5296 23.5622V25.2102H33.2976C33.0096 26.5329 32.3909 27.5729 31.4416 28.3302C30.5029 29.0769 29.3029 29.4502 27.8416 29.4502C26.1029 29.4502 24.7056 28.9062 23.6496 27.8182C22.5936 26.7196 22.0709 25.3329 22.0816 23.6582C22.0922 21.9942 22.6149 20.5862 23.6496 19.4342C24.6949 18.2822 26.1456 17.7062 28.0016 17.7062C29.3456 17.7062 30.4656 18.0529 31.3616 18.7462C32.2682 19.4396 32.7696 20.3036 32.8656 21.3382H30.8496C30.7216 20.7516 30.4069 20.2769 29.9056 19.9142C29.4042 19.5409 28.7696 19.3542 28.0016 19.3542C26.7002 19.3542 25.7082 19.7649 25.0256 20.5862C24.3429 21.3969 24.0069 22.4209 24.0176 23.6582C24.0069 24.8422 24.3482 25.8289 25.0416 26.6182C25.7456 27.4076 26.6789 27.8022 27.8416 27.8022C29.7509 27.8022 30.9242 26.9382 31.3616 25.2102H29.2016V23.5622H34.5296Z" fill="white" style="fill:white;fill-opacity:1;"/>
</svg>
