<svg width="16" height="16" viewBox="0 0 16 16" fill="none" xmlns="http://www.w3.org/2000/svg">
<path d="M14.7096 6.50512L8.64817 0.443677C8.364 0.159591 7.97863 0 7.57681 0C7.17499 0 6.78962 0.159591 6.50545 0.443677L0.444008 6.50512C0.302721 6.64554 0.190721 6.81262 0.114503 6.99666C0.038286 7.1807 -0.000631659 7.37804 7.75293e-06 7.57724V14.851C7.75293e-06 15.0921 0.0957999 15.3234 0.266311 15.4939C0.436822 15.6644 0.668085 15.7602 0.909224 15.7602H14.2444C14.4855 15.7602 14.7168 15.6644 14.8873 15.4939C15.0578 15.3234 15.1536 15.0921 15.1536 14.851V7.57724C15.1543 7.37804 15.1153 7.1807 15.0391 6.99666C14.9629 6.81262 14.8509 6.64554 14.7096 6.50512ZM13.3352 13.9417H1.81844V7.70225L7.57681 1.94388L13.3352 7.70225V13.9417Z" fill="#070A1C" style="fill:#070A1C;fill:color(display-p3 0.0275 0.0392 0.1098);fill-opacity:1;"/>
</svg>
