<svg width="20" height="20" viewBox="0 0 20 20" fill="none" xmlns="http://www.w3.org/2000/svg">
<g clip-path="url(#clip0_17249_1099)">
<path d="M8.23317 8.23317C7.98755 8.46204 7.79054 8.73805 7.6539 9.04471C7.51726 9.35137 7.44379 9.68242 7.43786 10.0181C7.43194 10.3538 7.49369 10.6872 7.61943 10.9985C7.74516 11.3098 7.93231 11.5926 8.16971 11.83C8.4071 12.0674 8.68988 12.2545 9.00118 12.3802C9.31247 12.506 9.6459 12.5677 9.98158 12.5618C10.3173 12.5559 10.6483 12.4824 10.955 12.3458C11.2616 12.2091 11.5376 12.0121 11.7665 11.7665M8.9415 4.23317C9.2926 4.18943 9.64603 4.16716 9.99984 4.1665C15.8332 4.1665 18.3332 9.99984 18.3332 9.99984C17.9606 10.7974 17.4933 11.5473 16.9415 12.2332M5.50817 5.50817C3.85088 6.63702 2.52473 8.18755 1.6665 9.99984C1.6665 9.99984 4.1665 15.8332 9.99984 15.8332C11.5964 15.8375 13.1588 15.3708 14.4915 14.4915M1.6665 1.6665L18.3332 18.3332" stroke="#81818D" style="stroke:#81818D;stroke:color(display-p3 0.5059 0.5059 0.5529);stroke-opacity:1;" stroke-width="2" stroke-linecap="round" stroke-linejoin="round"/>
</g>
<defs>
<clipPath id="clip0_17249_1099">
<rect width="20" height="20" fill="white" style="fill:white;fill-opacity:1;"/>
</clipPath>
</defs>
</svg>
